<svg width="42" height="42" viewBox="0 0 42 42" fill="none" xmlns="http://www.w3.org/2000/svg">
<g filter="url(#filter0_bddi_390_494)">
<path d="M32.6408 23.903C31.0379 30.3316 24.5261 34.2439 18.096 32.6408C11.6686 31.0381 7.75579 24.5266 9.35946 18.0984C10.9616 11.6691 17.4734 7.75636 23.9016 9.3591C30.3313 10.9618 34.2437 17.474 32.6408 23.903Z" fill="black"/>
</g>
<path d="M26.2958 19.2841C26.5347 17.6873 25.3189 16.829 23.6563 16.2563L24.1956 14.0934L22.8788 13.7652L22.3538 15.8712C22.0076 15.785 21.6521 15.7036 21.2988 15.623L21.8276 13.5031L20.5116 13.175L19.9719 15.3372C19.6854 15.272 19.4041 15.2075 19.1311 15.1396L19.1326 15.1329L17.3166 14.6795L16.9663 16.0857C16.9663 16.0857 17.9433 16.3096 17.9227 16.3235C18.456 16.4566 18.5524 16.8095 18.5363 17.0892L17.9219 19.5533C17.9587 19.5627 18.0063 19.5762 18.0588 19.5972C18.0149 19.5863 17.9681 19.5743 17.9197 19.5627L17.0586 23.0145C16.9933 23.1765 16.8279 23.4195 16.4552 23.3273C16.4683 23.3464 15.4981 23.0884 15.4981 23.0884L14.8444 24.5955L16.5579 25.0227C16.8767 25.1025 17.1891 25.1862 17.4966 25.2649L16.9517 27.4526L18.267 27.7808L18.8067 25.6163C19.1659 25.7138 19.5147 25.8038 19.856 25.8885L19.3182 28.0429L20.635 28.371L21.1799 26.1874C23.4253 26.6123 25.1137 26.4409 25.8244 24.4103C26.3971 22.7753 25.7959 21.8322 24.6145 21.2172C25.4749 21.0188 26.1229 20.4529 26.2958 19.2841ZM23.2873 23.5024C22.8803 25.1374 20.1272 24.2535 19.2346 24.0319L19.9577 21.1336C20.8503 21.3563 23.7126 21.7973 23.2873 23.5024ZM23.6946 19.2604C23.3233 20.7477 21.0318 19.9921 20.2884 19.8068L20.944 17.1781C21.6873 17.3633 24.0812 17.7091 23.6946 19.2604Z" fill="#DC5355"/>
<defs>
<filter id="filter0_bddi_390_494" x="-6" y="-6" width="54" height="54.0001" filterUnits="userSpaceOnUse" color-interpolation-filters="sRGB">
<feFlood flood-opacity="0" result="BackgroundImageFix"/>
<feGaussianBlur in="BackgroundImage" stdDeviation="7.5"/>
<feComposite in2="SourceAlpha" operator="in" result="effect1_backgroundBlur_390_494"/>
<feColorMatrix in="SourceAlpha" type="matrix" values="0 0 0 0 0 0 0 0 0 0 0 0 0 0 0 0 0 0 127 0" result="hardAlpha"/>
<feOffset dx="-1" dy="-1"/>
<feGaussianBlur stdDeviation="4"/>
<feComposite in2="hardAlpha" operator="out"/>
<feColorMatrix type="matrix" values="0 0 0 0 0.862745 0 0 0 0 0.32549 0 0 0 0 0.333333 0 0 0 1 0"/>
<feBlend mode="normal" in2="effect1_backgroundBlur_390_494" result="effect2_dropShadow_390_494"/>
<feColorMatrix in="SourceAlpha" type="matrix" values="0 0 0 0 0 0 0 0 0 0 0 0 0 0 0 0 0 0 127 0" result="hardAlpha"/>
<feOffset dx="1" dy="1"/>
<feGaussianBlur stdDeviation="4"/>
<feComposite in2="hardAlpha" operator="out"/>
<feColorMatrix type="matrix" values="0 0 0 0 0.862745 0 0 0 0 0.32549 0 0 0 0 0.333333 0 0 0 1 0"/>
<feBlend mode="normal" in2="effect2_dropShadow_390_494" result="effect3_dropShadow_390_494"/>
<feBlend mode="normal" in="SourceGraphic" in2="effect3_dropShadow_390_494" result="shape"/>
<feColorMatrix in="SourceAlpha" type="matrix" values="0 0 0 0 0 0 0 0 0 0 0 0 0 0 0 0 0 0 127 0" result="hardAlpha"/>
<feOffset dy="4"/>
<feGaussianBlur stdDeviation="7.5"/>
<feComposite in2="hardAlpha" operator="arithmetic" k2="-1" k3="1"/>
<feColorMatrix type="matrix" values="0 0 0 0 0.862745 0 0 0 0 0.32549 0 0 0 0 0.333333 0 0 0 0.1 0"/>
<feBlend mode="normal" in2="shape" result="effect4_innerShadow_390_494"/>
</filter>
</defs>
</svg>
